<?xml version="1.0" standalone="no"?>
<!DOCTYPE svg PUBLIC "-//W3C//DTD SVG 20010904//EN"
 "http://www.w3.org/TR/2001/REC-SVG-20010904/DTD/svg10.dtd">
<svg version="1.0" xmlns="http://www.w3.org/2000/svg"
 width="100.000000pt" height="100.000000pt" viewBox="0 0 100.000000 100.000000"
 preserveAspectRatio="xMidYMid meet">
<metadata>
Created by potrace 1.11, written by Peter Selinger 2001-2013
</metadata>
<g transform="translate(0.000000,100.000000) scale(0.100000,-0.100000)"
fill="#000000" stroke="none">
<path d="M66 931 c-3 -4 -4 -200 -3 -436 l2 -430 435 0 435 0 0 360 c0 335 -1
360 -17 363 -17 3 -18 -18 -18 -342 l0 -346 -185 0 -185 0 0 152 c0 144 1 150
18 135 54 -49 148 -60 215 -26 181 93 115 379 -88 379 -45 0 -96 -21 -124 -51
l-21 -23 0 27 c0 24 -4 27 -35 27 -32 0 -35 2 -35 30 0 30 -2 31 -42 29 -98
-4 -94 -6 -94 61 l0 60 229 0 c212 0 228 1 225 18 -3 16 -29 17 -356 19 -193
1 -354 -2 -356 -6z m184 -91 c0 -55 -2 -60 -22 -61 -72 -3 -73 -3 -76 -31 -4
-30 -3 -30 71 -30 l27 -1 1 -161 c0 -175 9 -218 50 -248 27 -21 100 -29 136
-17 23 8 23 8 23 -91 l0 -100 -180 0 -180 0 0 400 0 400 75 0 75 0 0 -60z
m210 -300 c0 -196 2 -190 -65 -190 -36 0 -64 21 -66 48 -4 39 -5 308 -2 314 2
3 32 6 68 6 l65 -1 0 -177z m275 120 c82 -50 79 -204 -4 -253 -63 -37 -158 -8
-190 58 -19 40 -21 103 -4 140 33 70 130 97 198 55z"/>
<path d="M887 916 c-7 -17 4 -32 23 -31 24 0 25 40 1 42 -11 1 -22 -4 -24 -11z"/>
</g>
</svg>
